<?xml version="1.0" encoding="utf-8"?>

<!DOCTYPE svg PUBLIC "-//W3C//DTD SVG 1.1//EN" "http://www.w3.org/Graphics/SVG/1.1/DTD/svg11.dtd">
<svg version="1.1" id="Food_Icons" xmlns="http://www.w3.org/2000/svg" xmlns:xlink="http://www.w3.org/1999/xlink" x="0px" y="0px"
	 width="83.13px" height="83.13px" viewBox="0 0 83.13 83.13" enable-background="new 0 0 83.13 83.13" xml:space="preserve">
<g id="_x39_">
	<g>
		<path fill="#E7AE76" d="M5.76,46.23c0.13,1.06,0.32,2.11,0.55,3.15c0.21,0.96,0.47,1.92,0.76,2.87
			c1.68,5.41,4.67,10.52,8.96,14.81s9.39,7.28,14.81,8.95c0.95,0.3,1.9,0.55,2.87,0.77c1.04,0.23,2.09,0.42,3.15,0.55
			c3.16,0.41,6.36,0.41,9.51-0.01c1.07-0.14,2.14-0.33,3.2-0.58c0.98-0.22,1.95-0.48,2.91-0.79c5.35-1.68,10.38-4.65,14.62-8.89
			c4.23-4.24,7.2-9.26,8.89-14.6c0.31-0.97,0.57-1.94,0.79-2.92c0.24-1.06,0.43-2.13,0.58-3.2c0.43-3.22,0.43-6.5-0.01-9.72
			c-0.15-1.11-0.36-2.22-0.61-3.31c-0.24-1.02-0.52-2.02-0.84-3.01c-1.71-5.24-4.64-10.16-8.8-14.32c-4.16-4.16-9.07-7.09-14.31-8.8
			c-0.99-0.32-2-0.6-3.01-0.84c-1.1-0.26-2.21-0.46-3.33-0.61c-3.27-0.45-6.58-0.44-9.85,0.01c-1.14,0.16-2.28,0.37-3.4,0.64
			c-1.03,0.24-2.05,0.53-3.06,0.87c-5.16,1.71-10.01,4.62-14.11,8.73c-4.11,4.1-7.02,8.95-8.74,14.11
			c-0.33,1.01-0.62,2.03-0.86,3.06c-0.27,1.11-0.48,2.24-0.63,3.37C5.35,39.74,5.33,43.01,5.76,46.23z M33.32,49.76
			c-4.56-4.55-4.56-11.94,0-16.49c4.55-4.55,11.94-4.55,16.49,0c4.56,4.55,4.56,11.94,0,16.49C45.26,54.32,37.87,54.32,33.32,49.76z
			"/>
	</g>
	<g>
		<path fill="#FDC784" d="M11.1,49.9c0.25,0.9,0.53,1.79,0.87,2.67c0.35,0.96,0.75,1.9,1.21,2.82c1.49,3.06,3.51,5.93,6.05,8.47
			c2.55,2.55,5.42,4.57,8.49,6.05c0.92,0.46,1.86,0.86,2.81,1.21c0.88,0.33,1.78,0.62,2.68,0.86c5.54,1.52,11.42,1.5,16.95-0.06
			c0.92-0.26,1.83-0.56,2.73-0.9c0.97-0.37,1.93-0.8,2.87-1.28c2.94-1.47,5.7-3.43,8.15-5.88c2.44-2.44,4.4-5.19,5.86-8.12
			c0.49-0.94,0.92-1.9,1.29-2.88c0.35-0.9,0.65-1.81,0.9-2.73c1.63-5.74,1.59-11.85-0.09-17.57c-0.28-0.96-0.61-1.9-0.98-2.83
			c-0.42-1.03-0.89-2.05-1.43-3.04c-1.42-2.7-3.28-5.24-5.55-7.51s-4.79-4.12-7.48-5.55c-0.99-0.53-2.01-1-3.04-1.42
			c-0.94-0.38-1.89-0.71-2.85-1c-5.93-1.74-12.28-1.72-18.2,0.08c-0.98,0.3-1.95,0.65-2.9,1.05c-1.07,0.44-2.11,0.94-3.13,1.52
			c-2.54,1.39-4.93,3.17-7.08,5.32c-2.16,2.16-3.94,4.55-5.34,7.1c-0.57,1.02-1.07,2.06-1.51,3.13c-0.4,0.95-0.74,1.91-1.04,2.89
			C9.6,38.02,9.52,44.14,11.1,49.9z M33.32,49.76c-4.56-4.55-4.56-11.94,0-16.49c4.55-4.55,11.94-4.55,16.49,0
			c4.56,4.55,4.56,11.94,0,16.49C45.26,54.32,37.87,54.32,33.32,49.76z"/>
	</g>
	<g>
		<path d="M3.45,41.52c0,1.87,0.13,3.73,0.4,5.55c0.17,1.16,0.39,2.3,0.66,3.43c1.62,6.75,5.07,12.94,10.1,17.97
			c5.03,5.03,11.22,8.48,17.96,10.1c1.12,0.27,2.26,0.49,3.41,0.66c1.83,0.26,3.7,0.4,5.59,0.4c1.91,0,3.8-0.14,5.65-0.41
			c0.01,0.01,0.01,0.01,0.01,0c1.17-0.18,2.33-0.4,3.47-0.69c6.69-1.63,12.83-5.07,17.82-10.06c4.99-4.99,8.43-11.12,10.06-17.81
			c0.29-1.15,0.51-2.31,0.69-3.49v-0.01c0.27-1.85,0.41-3.73,0.41-5.64c0-1.93-0.14-3.83-0.42-5.7c-0.18-1.22-0.42-2.43-0.72-3.61
			V32.2c-1.65-6.62-5.07-12.69-10.02-17.64S57.5,6.19,50.88,4.54c-1.2-0.3-2.42-0.54-3.65-0.73h-0.01
			c-1.85-0.27-3.74-0.41-5.65-0.41c-1.95,0-3.88,0.15-5.77,0.43c-1.25,0.19-2.48,0.44-3.69,0.75c-6.57,1.66-12.59,5.07-17.5,9.98
			C9.7,19.47,6.3,25.49,4.63,32.05c-0.31,1.21-0.56,2.44-0.75,3.68C3.6,37.63,3.45,39.56,3.45,41.52z M8.75,50.92
			c-0.25-0.9-0.47-1.81-0.65-2.74c-0.43-2.17-0.65-4.4-0.65-6.66c0-2.45,0.26-4.85,0.76-7.19c0.21-0.99,0.46-1.98,0.76-2.94
			c0.31-1,0.66-1.98,1.06-2.94v-0.01c1.69-4.08,4.19-7.82,7.41-11.05c3.26-3.26,7-5.71,11.01-7.36c0.97-0.41,1.95-0.76,2.95-1.06
			c0.97-0.31,1.95-0.57,2.94-0.78c2.38-0.51,4.8-0.77,7.23-0.77c2.36,0,4.73,0.24,7.05,0.74c0.98,0.2,1.95,0.44,2.9,0.74
			c0.98,0.29,1.94,0.63,2.89,1.01c4.11,1.66,7.96,4.15,11.28,7.48c3.33,3.33,5.83,7.19,7.49,11.31c0.39,0.95,0.73,1.91,1.02,2.89
			c0.29,0.95,0.54,1.92,0.73,2.89c0.96,4.56,0.98,9.29,0.05,13.87c-0.19,0.94-0.42,1.87-0.69,2.8c-0.28,0.94-0.59,1.88-0.96,2.8
			c-0.01-0.01-0.01,0-0.01,0c-1.65,4.26-4.2,8.26-7.63,11.69c-3.44,3.44-7.45,6-11.72,7.65c-0.91,0.36-1.84,0.68-2.78,0.96
			c-0.93,0.27-1.87,0.5-2.81,0.68c-4.44,0.9-9.03,0.91-13.47,0.04c-0.93-0.18-1.84-0.41-2.75-0.67c-0.92-0.26-1.83-0.56-2.73-0.91
			c-4.38-1.65-8.47-4.23-11.99-7.75c-3.46-3.46-6.08-7.53-7.77-11.97C9.33,52.77,9.02,51.85,8.75,50.92z"/>
	</g>
	<g>
		<g>
			<path fill="#D5618D" d="M2,41.55c0,2.27,0.69,4.05,1.85,5.52c0.67,0.86,1.51,1.61,2.46,2.31c0.74,0.54,1.57,1.05,2.44,1.54
				c1.01,0.57,2.1,1.11,3.22,1.65c3.91,1.9,8.24,3.83,11.5,7.09c3.24,3.24,5.17,7.56,7.06,11.46c0.54,1.11,1.07,2.18,1.63,3.18
				c0.49,0.89,1.01,1.72,1.55,2.48c0.69,0.94,1.43,1.77,2.27,2.45c1.49,1.19,3.28,1.9,5.59,1.9c2.32,0,4.14-0.71,5.65-1.91
				c0.01,0.01,0.01,0.01,0.01,0c0.87-0.68,1.64-1.52,2.34-2.48c0.57-0.76,1.1-1.6,1.62-2.49c0.57-1.02,1.13-2.11,1.7-3.23
				c1.89-3.78,3.85-7.94,7.02-11.11c3.18-3.19,7.35-5.15,11.15-7.05c1.12-0.57,2.21-1.12,3.23-1.71c0.89-0.51,1.73-1.04,2.49-1.61
				c0.96-0.71,1.81-1.49,2.49-2.37v-0.01c1.17-1.5,1.86-3.3,1.86-5.59c0-2.34-0.7-4.2-1.87-5.75c-0.68-0.93-1.54-1.75-2.52-2.51
				c-0.78-0.61-1.63-1.17-2.54-1.72c-1.05-0.63-2.16-1.24-3.31-1.86c-3.58-1.92-7.47-3.92-10.52-6.97
				c-3.06-3.06-5.06-6.96-6.98-10.55c-0.62-1.15-1.23-2.26-1.87-3.31c-0.55-0.92-1.13-1.78-1.74-2.56
				c-0.77-0.99-1.61-1.85-2.55-2.53h-0.01C45.68,2.67,43.86,2,41.57,2c-2.33,0-4.2,0.68-5.77,1.83c-0.96,0.69-1.82,1.56-2.6,2.55
				c-0.64,0.79-1.24,1.66-1.8,2.59c-0.68,1.07-1.31,2.21-1.96,3.37c-1.92,3.47-3.93,7.2-6.91,10.18c-2.97,2.97-6.69,4.97-10.15,6.89
				c-1.18,0.66-2.33,1.31-3.41,1.98c-0.9,0.56-1.76,1.14-2.54,1.76c-0.99,0.78-1.86,1.62-2.55,2.58C2.7,37.31,2,39.19,2,41.55z
				 M33.32,49.76c-4.56-4.55-4.56-11.94,0-16.49c4.55-4.55,11.94-4.55,16.49,0c4.56,4.55,4.56,11.94,0,16.49
				C45.26,54.32,37.87,54.32,33.32,49.76z"/>
		</g>
	</g>
	<g>
		<g>
			<path fill="#EC6F93" d="M10.85,41.51c0,7.86,10.66,8.06,16.66,14.06c0.83,0.83,1.54,1.74,2.18,2.71
				c0.25,0.37,0.49,0.75,0.71,1.14c3.47,5.84,4.81,12.81,11.17,12.81c7.86,0,8.24-10.47,14.24-16.47c5.99-6,16.47-6.38,16.47-14.24
				c0-7.86-10.12-8.6-16.12-14.6c-5.99-6-6.73-16.12-14.59-16.12c-7.86,0-8.79,9.94-14.78,15.94
				C20.79,32.73,10.85,33.65,10.85,41.51z M33.32,49.76c-4.56-4.55-4.56-11.94,0-16.49c4.55-4.55,11.94-4.55,16.49,0
				c4.56,4.55,4.56,11.94,0,16.49C45.26,54.32,37.87,54.32,33.32,49.76z"/>
		</g>
	</g>
	<g>
		<g>
			<path d="M0,41.55c0,4.11,1.85,6.85,4.51,8.95c0.79,0.64,1.65,1.22,2.56,1.75c0.83,0.5,1.71,0.97,2.6,1.42
				c0.8,0.4,1.62,0.8,2.43,1.19c0.36,0.17,0.72,0.35,1.08,0.53c3.2,1.55,6.41,3.22,8.87,5.69c1.37,1.37,2.5,2.97,3.5,4.67
				c0.79,1.34,1.49,2.75,2.17,4.16c0.19,0.37,0.37,0.75,0.55,1.12c0.38,0.79,0.76,1.58,1.16,2.36c0.44,0.9,0.91,1.78,1.41,2.62
				c0.53,0.91,1.1,1.77,1.73,2.56c2.12,2.68,4.87,4.56,9,4.56c4.17,0,6.97-1.9,9.13-4.6c0.65-0.8,1.23-1.67,1.78-2.58
				c0.52-0.86,1.01-1.75,1.49-2.66c0.37-0.73,0.74-1.46,1.1-2.19c0.23-0.45,0.45-0.9,0.69-1.36c1.53-3.03,3.19-6.05,5.56-8.42
				c2.37-2.37,5.41-4.04,8.45-5.58c0.44-0.22,0.89-0.45,1.33-0.67c0.74-0.37,1.48-0.74,2.22-1.12c0,0,0-0.01,0.01,0
				c0.91-0.48,1.8-0.97,2.66-1.49c0.92-0.55,1.79-1.15,2.59-1.8c2.68-2.16,4.55-4.95,4.55-9.1c0-4.22-1.89-7.09-4.59-9.35V32.2
				c-0.82-0.68-1.71-1.31-2.64-1.9c-0.88-0.56-1.79-1.09-2.72-1.6c-0.65-0.36-1.3-0.71-1.95-1.06c-0.59-0.32-1.18-0.63-1.77-0.95
				c-2.75-1.51-5.47-3.14-7.68-5.35c-2.21-2.21-3.85-4.94-5.35-7.71c-0.32-0.57-0.63-1.15-0.94-1.73c-0.36-0.66-0.71-1.33-1.08-1.99
				c-0.51-0.93-1.04-1.85-1.62-2.73c-0.58-0.93-1.22-1.82-1.91-2.64C48.63,1.87,45.76,0,41.57,0c-4.25,0-7.16,1.89-9.46,4.58
				c-0.72,0.82-1.37,1.73-1.97,2.67c-0.6,0.9-1.15,1.83-1.69,2.78c-0.35,0.6-0.68,1.21-1.02,1.81c-0.37,0.67-0.74,1.35-1.12,2.02
				c-1.48,2.59-3.09,5.15-5.19,7.25c-2.1,2.1-4.65,3.7-7.23,5.17c-0.68,0.39-1.36,0.76-2.04,1.14c-0.61,0.34-1.22,0.68-1.82,1.02
				v0.01c-0.93,0.52-1.86,1.07-2.74,1.64c-0.94,0.61-1.83,1.26-2.66,1.96C1.92,34.36,0,37.28,0,41.55z M13.84,51.26
				c-0.98-0.47-1.89-0.92-2.74-1.36c-1.12-0.58-2.12-1.14-3-1.72c-0.93-0.62-1.71-1.26-2.34-1.95C4.61,44.95,4,43.48,4,41.55
				c0-2.04,0.63-3.63,1.8-5.03c0.64-0.78,1.45-1.5,2.41-2.19c0.91-0.68,1.96-1.34,3.13-2.03c0.76-0.44,1.58-0.9,2.45-1.38
				c3.33-1.84,7.11-3.94,10.15-6.98c3.05-3.05,5.14-6.82,6.99-10.16c0.49-0.88,0.95-1.71,1.41-2.49c0.68-1.16,1.33-2.2,2-3.1
				c0.72-0.98,1.45-1.8,2.26-2.45C37.98,4.61,39.56,4,41.57,4c1.98,0,3.53,0.61,4.88,1.73c0.78,0.65,1.49,1.46,2.17,2.43
				c0.65,0.89,1.28,1.91,1.92,3.05c0.46,0.8,0.93,1.67,1.42,2.58c1.83,3.42,3.9,7.29,7,10.38c3.09,3.09,6.96,5.17,10.38,7
				c0.9,0.48,1.74,0.94,2.53,1.39c1.14,0.65,2.16,1.27,3.06,1.92c0.96,0.67,1.77,1.38,2.42,2.14c1.15,1.36,1.78,2.93,1.78,4.94
				c0,1.96-0.62,3.47-1.77,4.78c-0.65,0.71-1.44,1.37-2.38,2.01c-0.88,0.6-1.89,1.19-3.02,1.78c-0.82,0.44-1.7,0.89-2.64,1.36
				c-3.59,1.79-7.64,3.82-10.82,7c-3.18,3.18-5.21,7.24-7,10.82c-0.46,0.93-0.91,1.8-1.34,2.61c-0.6,1.12-1.18,2.13-1.78,3.01
				c-0.63,0.95-1.29,1.75-2.01,2.39c-1.31,1.18-2.83,1.81-4.8,1.81c-1.94,0-3.42-0.63-4.71-1.8c-0.69-0.63-1.33-1.42-1.95-2.36
				c-0.57-0.88-1.13-1.88-1.7-2.99c-0.44-0.84-0.88-1.73-1.34-2.69c-1.76-3.66-3.77-7.82-6.99-11.04c-1.61-1.61-3.45-2.92-5.35-4.05
				C17.63,53.08,15.67,52.14,13.84,51.26z"/>
		</g>
	</g>
	<g>
		<path d="M31.904,51.173L31.904,51.173c-2.582-2.578-4.004-6.008-4.004-9.658c0-3.651,1.423-7.082,4.006-9.659
			c2.578-2.578,6.009-3.998,9.659-3.998s7.081,1.42,9.658,3.996c2.584,2.579,4.007,6.01,4.007,9.661s-1.423,7.082-4.004,9.658
			c-2.579,2.584-6.01,4.007-9.661,4.007S34.483,53.757,31.904,51.173z M34.733,34.686c-1.827,1.822-2.833,4.248-2.833,6.829
			s1.006,5.007,2.833,6.829l0.003,0.003c1.822,1.827,4.248,2.833,6.829,2.833s5.007-1.006,6.832-2.836
			c1.827-1.822,2.833-4.248,2.833-6.829s-1.006-5.007-2.834-6.831c-1.884-1.883-4.356-2.824-6.83-2.824
			C39.091,31.86,36.617,32.801,34.733,34.686z"/>
	</g>
	<g>
		<path fill="#FFF2BC" d="M40.967,19.054c0.497,0,0.993-0.189,1.371-0.568l1.197-1.198c0.757-0.757,0.757-1.985-0.001-2.742
			c-0.758-0.756-1.985-0.756-2.742,0.001l-1.197,1.198c-0.757,0.757-0.757,1.985,0.001,2.742
			C39.975,18.864,40.471,19.054,40.967,19.054z"/>
	</g>
	<g>
		<path fill="#FFF2BC" d="M40.967,69.054c0.497,0,0.993-0.189,1.371-0.568l1.197-1.198c0.757-0.757,0.757-1.985-0.001-2.742
			c-0.758-0.756-1.985-0.756-2.742,0.001l-1.197,1.198c-0.757,0.757-0.757,1.985,0.001,2.742
			C39.975,68.864,40.471,69.054,40.967,69.054z"/>
	</g>
	<g>
		<path fill="#FFF2BC" d="M60.387,31.786c0-0.497-0.189-0.993-0.568-1.371l-1.198-1.197c-0.757-0.757-1.985-0.757-2.742,0.001
			c-0.756,0.758-0.756,1.985,0.001,2.742l1.198,1.197c0.757,0.757,1.985,0.757,2.742-0.001
			C60.198,32.778,60.387,32.282,60.387,31.786z"/>
	</g>
	<g>
		<path fill="#FFF2BC" d="M25.7,31.02c-0.351-0.351-0.836-0.568-1.371-0.568l-1.693,0c-1.071,0-1.939,0.869-1.939,1.939
			c0.002,1.07,0.869,1.939,1.939,1.939l1.693,0c1.071,0,1.939-0.869,1.939-1.939C26.268,31.856,26.051,31.371,25.7,31.02z"/>
	</g>
	<g>
		<path fill="#FFF2BC" d="M18.187,43.156c0-0.497-0.189-0.993-0.568-1.371l-1.198-1.197c-0.757-0.757-1.985-0.757-2.742,0.001
			c-0.756,0.758-0.756,1.985,0.001,2.742l1.198,1.197c0.757,0.757,1.985,0.757,2.742-0.001
			C17.997,44.149,18.187,43.653,18.187,43.156z"/>
	</g>
	<g>
		<path fill="#FFF2BC" d="M34.658,56.52c-0.351-0.351-0.836-0.568-1.371-0.568l-1.693,0c-1.071,0-1.939,0.869-1.939,1.939
			c0.002,1.07,0.869,1.939,1.939,1.939l1.693,0c1.071,0,1.939-0.869,1.939-1.939C35.226,57.356,35.009,56.871,34.658,56.52z"/>
	</g>
	<g>
		<path fill="#FFF2BC" d="M68.055,44.099c0.497,0,0.993-0.189,1.371-0.568l1.197-1.198c0.757-0.757,0.757-1.985-0.001-2.742
			c-0.758-0.756-1.985-0.756-2.742,0.001l-1.197,1.198c-0.757,0.757-0.757,1.985,0.001,2.742
			C67.063,43.909,67.559,44.099,68.055,44.099z"/>
	</g>
</g>
</svg>
